static pose
version=1
nRows=1
nColumns=38
inDegrees=yes
endheader
time	pelvis_tilt	pelvis_list	pelvis_rotation	pelvis_tx	pelvis_ty	pelvis_tz	hip_flexion_r	hip_adduction_r	hip_rotation_r	knee_angle_r	ankle_angle_r	subtalar_angle_r	mtp_angle_r	hip_flexion_l	hip_adduction_l	hip_rotation_l	knee_angle_l	ankle_angle_l	subtalar_angle_l	mtp_angle_l	lumbar_extension	lumbar_bending	lumbar_rotation	arm_flex_r	arm_add_r	arm_rot_r	elbow_flex_r	pro_sup_r	wrist_flex_r	wrist_dev_r	arm_flex_l	arm_add_l	arm_rot_l	elbow_flex_l	pro_sup_l	wrist_flex_l	wrist_dev_l
      0.00000000	      5.00469662	     -3.80668430	     -1.48075505	      0.27433783	      0.93775228	     -0.00130001	     -4.12578909	      0.09150232	     -4.07164136	     -9.07115886	     10.23150128	      0.00000000	      0.00000000	     -2.78158698	     -9.70030538	     -7.98722585	    -13.27792539	     13.90237983	      0.00000000	      0.00000000	    -12.11633116	      4.35204311	     -6.93185843	      4.99998070	     -6.78499558	      1.20207491	     26.84689781	    111.22871742	      0.00000000	      0.00000000	      3.94184360	     -8.28388536	      2.90199363	     26.81881158	    110.89228936	      0.00000000	      0.00000000
